<?xml version="1.0" standalone="no"?>
<!DOCTYPE svg PUBLIC "-//W3C//DTD SVG 20010904//EN"
 "http://www.w3.org/TR/2001/REC-SVG-20010904/DTD/svg10.dtd">
<svg version="1.0" xmlns="http://www.w3.org/2000/svg"
 width="192.000000pt" height="192.000000pt" viewBox="0 0 192.000000 192.000000"
 preserveAspectRatio="xMidYMid meet">
<metadata>
Created by potrace 1.16, written by Peter Selinger 2001-2019
</metadata>
<g transform="translate(0.000000,192.000000) scale(0.100000,-0.100000)"
fill="#000000" stroke="none">
<path d="M191 1898 c-59 -27 -143 -112 -170 -172 -21 -48 -21 -55 -21 -766 0
-711 0 -718 21 -766 28 -62 111 -145 173 -173 48 -21 55 -21 766 -21 711 0
718 0 766 21 62 28 145 111 173 173 21 48 21 55 21 766 0 711 0 718 -21 766
-28 62 -111 145 -173 173 -48 21 -54 21 -770 20 -703 -1 -722 -1 -765 -21z
m963 -286 c88 -33 144 -69 207 -133 108 -109 162 -273 141 -424 -28 -191 -163
-357 -343 -421 -37 -12 -39 -12 -44 9 -3 12 -19 87 -35 167 -27 131 -28 146
-14 155 46 29 68 52 85 89 74 164 -104 320 -258 225 -106 -66 -105 -233 3
-300 32 -20 35 -24 30 -58 -40 -249 -97 -601 -101 -619 -5 -22 -7 -22 -158
-20 l-152 3 -3 665 c-1 366 0 671 3 678 4 11 60 13 292 10 266 -4 292 -6 347
-26z"/>
</g>
</svg>
